# xmcd CD database file
#
# Track frame offsets:
#	187
#	17980
#	41353
#	62415
#	79804
#	99454
#	116185
#	131197
#	146157
#	161674
#	192383
#	208674
#
# Disc length: 2910 seconds
#
# Revision: 6
# Processed by: cddbd v1.5.2PL0 Copyright (c) Steve Scherf et al.
# Submitted via: CDex 1.51
#
DISCID=af0b5c0c
DTITLE=Larry McCray - Ambition
DYEAR=1990
DGENRE=Blues
TTITLE0=Ambition
TTITLE1=Count On Me For Love
TTITLE2=Me And My Baby
TTITLE3=One More Lonely Night
TTITLE4=Frustrated  Baby
TTITLE5=Keep On Walking
TTITLE6=Sally's Got A Friend In New York City
TTITLE7=I Don't Mind
TTITLE8=Nobody Never Hurt Nobody With The Blues
TTITLE9=Country Girl
TTITLE10=Secret Lover
TTITLE11=The Sun Rises In The East
EXTD=YEAR: 1990
EXTT0=
EXTT1=
EXTT2=
EXTT3=
EXTT4=
EXTT5=
EXTT6=
EXTT7=
EXTT8=
EXTT9=
EXTT10=
EXTT11=
PLAYORDER=
